<svg width="21" height="20" viewBox="0 0 21 20" fill="none" xmlns="http://www.w3.org/2000/svg">
<path d="M9 18C4.1 18 0 14 0 9C0 4.1 4 0 9 0C13.9 0 18 4 18 9C18 14 14 18 9 18ZM9 1.6C4.9 1.6 1.6 4.9 1.6 9C1.6 13.1 4.9 16.4 9 16.4C13.1 16.4 16.4 13.1 16.4 9C16.5 4.9 13.1 1.6 9 1.6Z" fill="#1D2123"/>
<path d="M19.3002 20C19.1002 20 18.9002 19.9 18.8002 19.8L14.3002 15.3C14.0002 15 14.0002 14.5 14.3002 14.2C14.6002 13.9 15.1002 13.9 15.4002 14.2L19.9002 18.7C20.2002 19 20.2002 19.5 19.9002 19.8C19.7002 20 19.5002 20 19.3002 20Z" fill="#1D2123"/>
</svg>
