<svg width="21" height="20" viewBox="0 0 21 20" fill="none" xmlns="http://www.w3.org/2000/svg">
<g id="cart">
<g id="Group 147">
<path id="Vector" d="M8.22293 18.7514C8.67936 18.7514 9.04938 18.376 9.04938 17.9128C9.04938 17.4497 8.67936 17.0742 8.22293 17.0742C7.7665 17.0742 7.39648 17.4497 7.39648 17.9128C7.39648 18.376 7.7665 18.7514 8.22293 18.7514Z" stroke="white" stroke-width="1.5" stroke-linecap="round" stroke-linejoin="round"/>
<path id="Vector_2" d="M17.3138 18.7514C17.7702 18.7514 18.1402 18.376 18.1402 17.9128C18.1402 17.4497 17.7702 17.0742 17.3138 17.0742C16.8573 17.0742 16.4873 17.4497 16.4873 17.9128C16.4873 18.376 16.8573 18.7514 17.3138 18.7514Z" stroke="white" stroke-width="1.5" stroke-linecap="round" stroke-linejoin="round"/>
<path id="Vector_3" d="M1.61133 1.14082H4.91711L7.13199 12.3697C7.20756 12.7558 7.41456 13.1026 7.71674 13.3494C8.01892 13.5962 8.39703 13.7274 8.78488 13.7198H16.8179C17.2058 13.7274 17.5839 13.5962 17.8861 13.3494C18.1883 13.1026 18.3953 12.7558 18.4708 12.3697L19.7931 5.33382H5.74356" stroke="white" stroke-width="1.5" stroke-linecap="round" stroke-linejoin="round"/>
</g>
</g>
</svg>
