<svg width="460" height="298" viewBox="0 0 460 298" fill="none" xmlns="http://www.w3.org/2000/svg">
<g opacity="0.16" clip-path="url(#clip0_0_1)">
<circle cx="265" cy="5" r="5" fill="#2DD06E"/>
<circle cx="285" cy="5" r="5" fill="#2DD06E"/>
<circle cx="305" cy="5" r="5" fill="#2DD06E"/>
<circle cx="325" cy="5" r="5" fill="#2DD06E"/>
<circle cx="345" cy="5" r="5" fill="#2DD06E"/>
<circle cx="365" cy="5" r="5" fill="#2DD06E"/>
<circle cx="385" cy="5" r="5" fill="#2DD06E"/>
<circle cx="405" cy="5" r="5" fill="#2DD06E"/>
<circle cx="425" cy="5" r="5" fill="#2DD06E"/>
<circle cx="445" cy="5" r="5" fill="#2DD06E"/>
<circle cx="265" cy="25" r="5" fill="#2DD06E"/>
<circle cx="285" cy="25" r="5" fill="#2DD06E"/>
<circle cx="305" cy="25" r="5" fill="#2DD06E"/>
<circle cx="325" cy="25" r="5" fill="#2DD06E"/>
<circle cx="345" cy="25" r="5" fill="#2DD06E"/>
<circle cx="365" cy="25" r="5" fill="#2DD06E"/>
<circle cx="385" cy="25" r="5" fill="#2DD06E"/>
<circle cx="405" cy="25" r="5" fill="#2DD06E"/>
<circle cx="425" cy="25" r="5" fill="#2DD06E"/>
<circle cx="445" cy="25" r="5" fill="#2DD06E"/>
<circle cx="265" cy="45" r="5" fill="#2DD06E"/>
<circle cx="285" cy="45" r="5" fill="#2DD06E"/>
<circle cx="305" cy="45" r="5" fill="#2DD06E"/>
<circle cx="325" cy="45" r="5" fill="#2DD06E"/>
<circle cx="345" cy="45" r="5" fill="#2DD06E"/>
<circle cx="365" cy="45" r="5" fill="#2DD06E"/>
<circle cx="385" cy="45" r="5" fill="#2DD06E"/>
<circle cx="405" cy="45" r="5" fill="#2DD06E"/>
<circle cx="425" cy="45" r="5" fill="#2DD06E"/>
<circle cx="445" cy="45" r="5" fill="#2DD06E"/>
<circle cx="265" cy="65" r="5" fill="#2DD06E"/>
<circle cx="285" cy="65" r="5" fill="#2DD06E"/>
<circle cx="305" cy="65" r="5" fill="#2DD06E"/>
<circle cx="325" cy="65" r="5" fill="#2DD06E"/>
<circle cx="345" cy="65" r="5" fill="#2DD06E"/>
<circle cx="365" cy="65" r="5" fill="#2DD06E"/>
<circle cx="385" cy="65" r="5" fill="#2DD06E"/>
<circle cx="405" cy="65" r="5" fill="#2DD06E"/>
<circle cx="425" cy="65" r="5" fill="#2DD06E"/>
<circle cx="445" cy="65" r="5" fill="#2DD06E"/>
<circle cx="265" cy="85" r="5" fill="#2DD06E"/>
<circle cx="285" cy="85" r="5" fill="#2DD06E"/>
<circle cx="305" cy="85" r="5" fill="#2DD06E"/>
<circle cx="325" cy="85" r="5" fill="#2DD06E"/>
<circle cx="345" cy="85" r="5" fill="#2DD06E"/>
<circle cx="365" cy="85" r="5" fill="#2DD06E"/>
<circle cx="385" cy="85" r="5" fill="#2DD06E"/>
<circle cx="405" cy="85" r="5" fill="#2DD06E"/>
<circle cx="425" cy="85" r="5" fill="#2DD06E"/>
<circle cx="445" cy="85" r="5" fill="#2DD06E"/>
<circle cx="265" cy="105" r="5" fill="#2DD06E"/>
<circle cx="285" cy="105" r="5" fill="#2DD06E"/>
<circle cx="305" cy="105" r="5" fill="#2DD06E"/>
<circle cx="325" cy="105" r="5" fill="#2DD06E"/>
<circle cx="345" cy="105" r="5" fill="#2DD06E"/>
<circle cx="365" cy="105" r="5" fill="#2DD06E"/>
<circle cx="385" cy="105" r="5" fill="#2DD06E"/>
<circle cx="405" cy="105" r="5" fill="#2DD06E"/>
<circle cx="425" cy="105" r="5" fill="#2DD06E"/>
<circle cx="445" cy="105" r="5" fill="#2DD06E"/>
<circle cx="265" cy="125" r="5" fill="#2DD06E"/>
<circle cx="285" cy="125" r="5" fill="#2DD06E"/>
<circle cx="305" cy="125" r="5" fill="#2DD06E"/>
<circle cx="325" cy="125" r="5" fill="#2DD06E"/>
<circle cx="345" cy="125" r="5" fill="#2DD06E"/>
<circle cx="365" cy="125" r="5" fill="#2DD06E"/>
<circle cx="385" cy="125" r="5" fill="#2DD06E"/>
<circle cx="405" cy="125" r="5" fill="#2DD06E"/>
<circle cx="425" cy="125" r="5" fill="#2DD06E"/>
<circle cx="445" cy="125" r="5" fill="#2DD06E"/>
<circle cx="265" cy="145" r="5" fill="#2DD06E"/>
<circle cx="285" cy="145" r="5" fill="#2DD06E"/>
<circle cx="305" cy="145" r="5" fill="#2DD06E"/>
<circle cx="325" cy="145" r="5" fill="#2DD06E"/>
<circle cx="345" cy="145" r="5" fill="#2DD06E"/>
<circle cx="365" cy="145" r="5" fill="#2DD06E"/>
<circle cx="385" cy="145" r="5" fill="#2DD06E"/>
<circle cx="405" cy="145" r="5" fill="#2DD06E"/>
<circle cx="425" cy="145" r="5" fill="#2DD06E"/>
<circle cx="445" cy="145" r="5" fill="#2DD06E"/>
<circle cx="265" cy="165" r="5" fill="#2DD06E"/>
<circle cx="285" cy="165" r="5" fill="#2DD06E"/>
<circle cx="305" cy="165" r="5" fill="#2DD06E"/>
<circle cx="325" cy="165" r="5" fill="#2DD06E"/>
<circle cx="345" cy="165" r="5" fill="#2DD06E"/>
<circle cx="365" cy="165" r="5" fill="#2DD06E"/>
<circle cx="385" cy="165" r="5" fill="#2DD06E"/>
<circle cx="405" cy="165" r="5" fill="#2DD06E"/>
<circle cx="425" cy="165" r="5" fill="#2DD06E"/>
<circle cx="445" cy="165" r="5" fill="#2DD06E"/>
<circle cx="265" cy="185" r="5" fill="#2DD06E"/>
<circle cx="285" cy="185" r="5" fill="#2DD06E"/>
<circle cx="305" cy="185" r="5" fill="#2DD06E"/>
<circle cx="325" cy="185" r="5" fill="#2DD06E"/>
<circle cx="345" cy="185" r="5" fill="#2DD06E"/>
<circle cx="365" cy="185" r="5" fill="#2DD06E"/>
<circle cx="385" cy="185" r="5" fill="#2DD06E"/>
<circle cx="405" cy="185" r="5" fill="#2DD06E"/>
<circle cx="425" cy="185" r="5" fill="#2DD06E"/>
<circle cx="445" cy="185" r="5" fill="#2DD06E"/>
</g>
<g clip-path="url(#clip1_0_1)">
<path d="M201.969 295.62H198.758L199.828 232.912H200.898L201.969 295.62Z" fill="#E6E6E6"/>
<path d="M204.502 193.375L209.676 185.389C208.142 181.156 206.37 177.012 204.368 172.978L201.022 175.677L203.672 171.588C201.147 166.625 199.16 163.498 199.16 163.498C199.16 163.498 188.784 179.829 185.317 197.121L191.957 207.369L184.606 201.44C184.345 203.454 184.21 205.483 184.203 207.514C184.203 227.993 190.9 244.595 199.16 244.595C207.421 244.595 214.118 227.993 214.118 207.514C214.118 201.165 212.68 194.523 210.696 188.379L204.502 193.375Z" fill="#E6E6E6"/>
<path d="M120.656 295.62H117.445L118.516 232.912H119.585L120.656 295.62Z" fill="#E6E6E6"/>
<path d="M124.393 193.375L129.567 185.389C128.033 181.156 126.26 177.012 124.259 172.978L120.913 175.677L123.562 171.588C121.038 166.625 119.051 163.498 119.051 163.498C119.051 163.498 108.674 179.829 105.208 197.121L111.847 207.369L104.497 201.44C104.235 203.454 104.101 205.483 104.094 207.514C104.094 227.993 110.79 244.595 119.051 244.595C127.312 244.595 134.008 227.993 134.008 207.514C134.008 201.165 132.57 194.523 130.587 188.379L124.393 193.375Z" fill="#E6E6E6"/>
<path d="M160.556 295.426H154.135L156.275 166.447H158.416L160.556 295.426Z" fill="#E6E6E6"/>
<path d="M166.138 85.1273L176.807 68.6603C173.643 59.9316 169.989 51.3882 165.862 43.0706L158.963 48.6356L164.425 40.2044C159.22 29.9701 155.124 23.522 155.124 23.522C155.124 23.522 133.728 57.1965 126.58 92.8501L140.27 113.981L125.115 101.755C124.575 105.909 124.297 110.092 124.283 114.28C124.283 156.506 138.091 190.736 155.124 190.736C172.157 190.736 185.964 156.506 185.964 114.28C185.964 101.189 182.999 87.4939 178.909 74.8252L166.138 85.1273Z" fill="#E6E6E6"/>
<path d="M129.382 76.145C145.735 76.145 158.991 62.9049 158.991 46.5725C158.991 30.2401 145.735 17 129.382 17C113.03 17 99.7734 30.2401 99.7734 46.5725C99.7734 62.9049 113.03 76.145 129.382 76.145Z" fill="#E6E6E6"/>
<path d="M384 295.248H0V296.216H384V295.248Z" fill="#3F3D56"/>
<path d="M345.614 143.297C345.774 143.297 345.933 143.266 346.081 143.205C346.229 143.143 346.363 143.054 346.477 142.94C346.59 142.827 346.68 142.693 346.741 142.545C346.802 142.397 346.834 142.239 346.834 142.079V129.08C346.836 128.885 346.79 128.692 346.701 128.518C346.612 128.344 346.481 128.194 346.321 128.081C346.161 127.969 345.976 127.897 345.782 127.872C345.588 127.846 345.391 127.868 345.207 127.936V113.238C345.207 112.705 345.102 112.176 344.897 111.684C344.693 111.191 344.394 110.743 344.016 110.366C343.638 109.989 343.19 109.689 342.696 109.485C342.203 109.281 341.674 109.176 341.14 109.176H208.147C207.613 109.176 207.084 109.281 206.591 109.485C206.097 109.689 205.649 109.989 205.271 110.366C204.894 110.743 204.594 111.191 204.39 111.684C204.185 112.176 204.08 112.705 204.08 113.238V291.562C204.08 292.64 204.509 293.673 205.271 294.435C206.034 295.197 207.068 295.625 208.147 295.625H341.14C342.219 295.625 343.253 295.197 344.016 294.435C344.779 293.673 345.207 292.64 345.207 291.562V161.502C345.391 161.57 345.588 161.592 345.782 161.566C345.976 161.541 346.161 161.469 346.321 161.357C346.481 161.244 346.611 161.094 346.701 160.92C346.79 160.746 346.836 160.553 346.834 160.358V147.359C346.836 147.164 346.79 146.971 346.701 146.797C346.611 146.623 346.481 146.473 346.321 146.361C346.161 146.248 345.976 146.176 345.782 146.151C345.588 146.126 345.391 146.148 345.207 146.215V143.223C345.337 143.271 345.475 143.296 345.614 143.297Z" fill="#3F3D56"/>
<path d="M333.007 117.097C333.541 117.097 334.069 117.202 334.563 117.406C335.056 117.611 335.505 117.91 335.882 118.287C336.26 118.664 336.56 119.112 336.764 119.605C336.968 120.098 337.074 120.626 337.074 121.159V283.642C337.074 284.719 336.645 285.752 335.882 286.514C335.12 287.276 334.085 287.704 333.007 287.704H216.282C215.203 287.704 214.169 287.276 213.406 286.514C212.643 285.752 212.215 284.719 212.215 283.642V121.159C212.215 120.082 212.643 119.049 213.406 118.287C214.169 117.525 215.203 117.097 216.282 117.097H333.007Z" fill="white"/>
<path d="M274.644 114.863C275.543 114.863 276.271 114.135 276.271 113.238C276.271 112.341 275.543 111.613 274.644 111.613C273.746 111.613 273.018 112.341 273.018 113.238C273.018 114.135 273.746 114.863 274.644 114.863Z" fill="white"/>
<path d="M322.944 138.412H222.979V148.334H322.944V138.412Z" fill="#2DD06E"/>
<path d="M322.944 161.784H222.979V165.542H322.944V161.784Z" fill="#E6E6E6"/>
<path d="M322.944 173.254H222.979V177.012H322.944V173.254Z" fill="#E6E6E6"/>
<path d="M274.63 184.87H222.979V188.628H274.63V184.87Z" fill="#E6E6E6"/>
<path d="M322.944 196.692H222.979V200.45H322.944V196.692Z" fill="#E6E6E6"/>
<path d="M322.944 208.514H222.979V212.272H322.944V208.514Z" fill="#E6E6E6"/>
<path d="M272.901 220.336H222.979V224.094H272.901V220.336Z" fill="#E6E6E6"/>
<path d="M322.944 232.158H222.979V235.916H322.944V232.158Z" fill="#E6E6E6"/>
<path d="M322.944 243.98H222.979V247.738H322.944V243.98Z" fill="#E6E6E6"/>
<path d="M323.064 258.48H291.496V268.846H323.064V258.48Z" fill="#2DD06E"/>
<path d="M115.869 175.111H115.158V151.454C115.158 147.807 113.707 144.309 111.125 141.73C108.543 139.151 105.041 137.702 101.389 137.702H50.9343C49.1262 137.702 47.3358 138.058 45.6654 138.749C43.995 139.44 42.4771 140.453 41.1986 141.73C39.9201 143.007 38.906 144.523 38.2141 146.191C37.5221 147.86 37.166 149.648 37.166 151.454V281.873C37.166 283.679 37.5221 285.467 38.2141 287.136C38.906 288.804 39.9201 290.32 41.1986 291.597C42.4771 292.874 43.995 293.887 45.6654 294.578C47.3358 295.269 49.1262 295.625 50.9343 295.625H101.389C105.041 295.625 108.543 294.176 111.125 291.597C113.707 289.018 115.158 285.52 115.158 281.873V191.922H115.869V175.111Z" fill="#3F3D56"/>
<path d="M112.076 150.511V281.567C112.076 284.29 110.993 286.903 109.064 288.828C107.136 290.754 104.521 291.836 101.793 291.836H51.2414C48.5143 291.836 45.899 290.754 43.9706 288.828C42.0423 286.903 40.959 284.29 40.959 281.567V150.511C40.959 148.056 41.9354 145.701 43.6735 143.965C45.4116 142.229 47.769 141.254 50.227 141.254H57.3642C57.0947 141.927 56.9747 142.651 57.0124 143.375C57.0502 144.099 57.2448 144.806 57.5829 145.448C57.9945 146.157 58.5774 146.751 59.2783 147.176C59.9792 147.602 60.7757 147.845 61.595 147.883H91.0062C91.8256 147.845 92.6222 147.602 93.3231 147.176C94.024 146.751 94.6069 146.157 95.0184 145.448C95.3564 144.806 95.551 144.099 95.5887 143.375C95.6264 142.651 95.5064 141.927 95.2369 141.254H102.808C105.266 141.254 107.623 142.229 109.361 143.965C111.099 145.701 112.076 148.056 112.076 150.511Z" fill="white"/>
<path d="M170.651 114.939C170.651 114.939 165.288 113.026 161.84 120.679C158.392 128.331 153.029 136.748 153.029 136.748L156.094 137.513C156.094 137.513 156.86 132.157 158.775 131.392L158.009 138.278C158.009 138.278 180.994 146.313 191.337 137.513L190.954 134.835C190.954 134.835 192.486 135.218 192.486 137.513L193.636 136.365C193.636 136.365 192.486 134.07 189.039 131.009C186.776 129 185.998 125.178 185.731 122.788C185.531 120.793 184.731 118.904 183.438 117.371C181.146 114.719 176.972 111.9 170.651 114.939Z" fill="#2F2E41"/>
<path d="M139.154 180.584L144.169 186.959L147.361 183.315L144.625 178.762L139.154 180.584Z" fill="#FBBEBE"/>
<path d="M137.331 278.485L135.508 288.048L140.067 290.325L143.258 288.048V278.485H137.331Z" fill="#FBBEBE"/>
<path d="M169.245 278.485L171.069 288.048L166.51 290.325L163.318 288.048V278.485H169.245Z" fill="#FBBEBE"/>
<path d="M150.552 192.423L144.169 237.958L135.051 279.396L145.993 280.762L154.656 242.057L165.597 209.271L164.23 248.432L161.95 280.762H170.157L176.083 237.048L182.637 204.547L182.466 192.423H150.552Z" fill="#2F2E41"/>
<path d="M138.698 287.137C138.698 287.137 136.418 284.405 135.051 285.771C133.683 287.137 130.491 292.602 130.491 292.602C130.491 292.602 123.197 296.7 129.124 297.61C135.051 298.521 136.874 297.61 136.874 297.155C136.874 296.7 137.786 295.334 137.786 295.334L140.066 295.789L143.257 294.878C143.257 294.878 144.625 286.488 143.257 286.813C141.889 287.137 139.154 288.503 138.698 287.137Z" fill="#2F2E41"/>
<path d="M167.876 287.137C167.876 287.137 170.156 284.405 171.523 285.771C172.891 287.137 176.083 292.602 176.083 292.602C176.083 292.602 183.377 296.7 177.45 297.61C171.523 298.521 169.7 297.61 169.7 297.155C169.7 296.7 168.788 295.334 168.788 295.334L166.508 295.789L163.317 294.878C163.317 294.878 161.949 286.488 163.317 286.813C164.685 287.137 167.42 288.503 167.876 287.137Z" fill="#2F2E41"/>
<path d="M172.208 138.463C177.244 138.463 181.327 134.386 181.327 129.356C181.327 124.326 177.244 120.249 172.208 120.249C167.172 120.249 163.09 124.326 163.09 129.356C163.09 134.386 167.172 138.463 172.208 138.463Z" fill="#FBBEBE"/>
<path d="M178.363 135.048C178.363 135.048 177.451 142.789 177.907 144.61C178.363 146.432 179.275 149.164 179.275 149.164L164.686 146.432C164.686 146.432 168.789 137.78 167.877 136.414C166.965 135.048 178.363 135.048 178.363 135.048Z" fill="#FBBEBE"/>
<path d="M179.731 145.977L164.686 142.789L156.023 195.61C159.928 194.546 164.066 194.705 167.877 196.066C174.26 198.343 182.923 196.066 182.923 196.066L181.099 146.432L179.731 145.977Z" fill="#2DD06E"/>
<path d="M167.749 138.605L162.406 141.423L155.567 142.789L148.272 160.093L149.184 172.387C149.184 172.387 141.433 186.503 140.521 194.244C140.521 194.244 141.433 206.084 156.479 205.628L166.509 177.851C166.509 177.851 170.612 156.905 166.509 150.985C166.509 150.985 169.446 139.886 167.749 138.605Z" fill="#2F2E41"/>
<path d="M158.302 142.789L156.826 142.537L155.567 142.789C155.567 142.789 152.375 143.244 148.728 146.432C145.081 149.619 132.771 159.637 131.859 162.369C130.947 165.101 131.403 169.655 132.771 172.387C134.139 175.119 136.874 178.762 136.874 178.762L138.242 181.95L145.993 179.673C145.993 179.673 140.978 170.11 141.433 166.012L150.552 158.726L158.302 142.789Z" fill="#2F2E41"/>
<path d="M177.858 140.664L184.745 149.164L188.393 153.717L183.833 169.2L181.554 182.405C181.554 182.405 187.025 203.351 182.466 209.726C182.466 209.726 179.73 212.914 178.818 209.271C177.907 205.628 177.907 188.325 177.907 188.325C177.907 188.325 174.259 165.557 176.083 159.637C177.907 153.717 175.985 141.727 177.858 140.664Z" fill="#2F2E41"/>
<path d="M184.291 206.539V211.092C184.291 211.092 183.379 226.119 187.939 224.298C192.498 222.476 189.306 211.092 189.306 211.092L188.85 206.083L184.291 206.539Z" fill="#FBBEBE"/>
<path d="M162.045 129.841C165.513 127.335 168.32 124.448 170.176 121.014C170.176 121.014 176.54 128.076 180.429 128.429C184.318 128.782 180.783 119.955 180.783 119.955L173.712 118.189L166.995 118.895L161.691 122.426L162.045 129.841Z" fill="#2F2E41"/>
<path d="M184.745 152.351L188.393 153.717L188.849 158.271L190.672 186.048L189.76 206.995L182.922 207.45L180.642 184.226L179.73 158.727L184.745 152.351Z" fill="#2F2E41"/>
<path d="M104.127 178.396H48.709V183.897H104.127V178.396Z" fill="#2DD06E"/>
<path d="M104.127 191.353H48.709V193.437H104.127V191.353Z" fill="#E6E6E6"/>
<path d="M104.127 197.712H48.709V199.796H104.127V197.712Z" fill="#E6E6E6"/>
<path d="M77.3434 204.152H48.709V206.235H77.3434V204.152Z" fill="#E6E6E6"/>
<path d="M104.127 210.706H48.709V212.789H104.127V210.706Z" fill="#E6E6E6"/>
<path d="M104.127 217.259H48.709V219.343H104.127V217.259Z" fill="#E6E6E6"/>
<path d="M76.3845 223.813H48.709V225.897H76.3845V223.813Z" fill="#E6E6E6"/>
<path d="M104.127 230.367H48.709V232.45H104.127V230.367Z" fill="#E6E6E6"/>
<path d="M104.127 236.921H48.709V239.004H104.127V236.921Z" fill="#E6E6E6"/>
<path d="M104.194 244.959H86.6934V250.706H104.194V244.959Z" fill="#2DD06E"/>
</g>
<defs>
<clipPath id="clip0_0_1">
<rect width="200" height="200" fill="white" transform="translate(260)"/>
</clipPath>
<clipPath id="clip1_0_1">
<rect width="384" height="281" fill="white" transform="translate(0 17)"/>
</clipPath>
</defs>
</svg>
