<svg width="16" height="13" viewBox="0 0 16 13" fill="none" xmlns="http://www.w3.org/2000/svg">
<path d="M8.49887 1.77305L8.4672 0.333313L7.47089 0.848126L7.44215 1.77909C3.56073 2.16262 0.5 6.50986 0.5 11.8197C0.5 12.1618 0.512615 12.4997 0.537844 12.8333H1.89708C1.88433 12.5893 1.87594 12.3433 1.87594 12.0945C1.87594 7.27821 4.30653 3.32522 7.40771 2.90222L7.12998 11.9485L8.70709 11.1763L8.52373 2.904C11.6183 3.33674 14.042 7.28538 14.042 12.0947C14.042 12.3435 14.0337 12.5894 14.0209 12.8335H15.4624C15.4873 12.5001 15.4999 12.1623 15.5001 11.8199C15.4999 6.48296 12.4085 2.118 8.49887 1.77305Z" fill="#828282"/>
</svg>
