<svg width="22" height="17" viewBox="0 0 22 17" fill="none" xmlns="http://www.w3.org/2000/svg">
<path fill-rule="evenodd" clip-rule="evenodd" d="M6.2198 2C5.3558 2 4.5458 2.334 3.9398 2.941C2.6818 4.201 2.6818 6.252 3.9408 7.514L10.9998 14.585L18.0598 7.514C19.3188 6.252 19.3188 4.201 18.0598 2.941C16.8478 1.726 14.7118 1.728 13.4998 2.941L11.7078 4.736C11.3318 5.113 10.6678 5.113 10.2918 4.736L8.4998 2.94C7.8938 2.334 7.0848 2 6.2198 2ZM10.9998 17C10.7348 17 10.4798 16.895 10.2928 16.706L2.5248 8.926C0.488803 6.886 0.488803 3.567 2.5248 1.527C3.5088 0.543 4.8208 0 6.2198 0C7.6188 0 8.9318 0.543 9.9148 1.527L10.9998 2.614L12.0848 1.528C13.0688 0.543 14.3808 0 15.7808 0C17.1788 0 18.4918 0.543 19.4748 1.527C21.5118 3.567 21.5118 6.886 19.4758 8.926L11.7078 16.707C11.5198 16.895 11.2658 17 10.9998 17Z" fill="#303030"/>
</svg>
